<?xml version="1.0" standalone="no"?>
<!DOCTYPE svg PUBLIC "-//W3C//DTD SVG 20010904//EN"
 "http://www.w3.org/TR/2001/REC-SVG-20010904/DTD/svg10.dtd">
<svg version="1.0" xmlns="http://www.w3.org/2000/svg"
 width="250.000000px" height="37.000000px" viewBox="0 0 250.000000 512.000000"
 preserveAspectRatio="xMidYMid meet">
<metadata>
Created by potrace 1.16, written by Peter Selinger 2001-2019
</metadata>
<g transform="translate(-1500.000000,512.000000) scale(0.100000,-0.100000)"
fill="#000000" stroke="none">
<path d="M2010 3979 c-190 -9 -521 -33 -720 -52 l-125 -12 -3 -528 -2 -527
170 0 170 0 0 170 0 170 408 -2 407 -3 3 -167 2 -168 240 0 240 0 2 168 3 167
408 3 407 2 0 -170 0 -170 170 0 170 0 -2 527 -3 528 -125 12 c-595 57 -1282
77 -1820 52z"/>
<path d="M6 2795 c-10 -81 -7 -407 4 -513 63 -592 332 -1141 766 -1563 299
-289 645 -494 1038 -613 132 -41 333 -81 468 -96 125 -13 431 -13 556 0 1014
108 1880 825 2176 1804 41 132 81 333 96 468 11 106 14 432 4 513 l-6 50 -568
-3 -568 -2 103 -167 c57 -92 102 -169 101 -171 -2 -1 -43 2 -92 7 -361 41
-1014 71 -1524 71 -512 0 -1166 -31 -1524 -71 -49 -5 -90 -8 -92 -7 -1 2 44
79 101 171 l103 167 -568 2 -568 3 -6 -50z"/>
</g>
</svg>
